<?xml version="1.0" standalone="no"?>
<!DOCTYPE svg PUBLIC "-//W3C//DTD SVG 20010904//EN"
 "http://www.w3.org/TR/2001/REC-SVG-20010904/DTD/svg10.dtd">
<svg version="1.0" xmlns="http://www.w3.org/2000/svg"
 width="247.000000pt" height="204.000000pt" viewBox="0 0 247.000000 204.000000"
 preserveAspectRatio="xMidYMid meet">

<g transform="translate(0.000000,204.000000) scale(0.100000,-0.100000)"
fill="#000000" stroke="none">
<path d="M1387 2026 c-8 -6 -68 -244 -135 -531 -67 -286 -169 -725 -228 -975
-68 -292 -103 -460 -97 -469 13 -21 145 -52 159 -38 15 15 467 1955 460 1973
-3 7 -18 16 -33 19 -15 4 -47 12 -70 19 -32 10 -46 10 -56 2z"/>
<path d="M294 1428 c-148 -193 -273 -359 -277 -368 -7 -13 56 -101 266 -376
l274 -359 166 -3 c92 -1 167 0 167 2 0 5 -284 379 -471 622 l-79 102 118 153
c65 85 190 250 279 367 l162 212 -168 0 -168 0 -269 -352z"/>
<path d="M1643 1688 c329 -425 487 -641 479 -651 -38 -48 -530 -695 -536 -705
-6 -9 28 -12 157 -12 l164 0 273 357 c150 197 273 363 274 370 1 6 -120 171
-269 367 l-270 355 -168 1 -168 0 64 -82z"/>
</g>
</svg>
