<?xml version="1.0" standalone="no"?>
<!DOCTYPE svg PUBLIC "-//W3C//DTD SVG 20010904//EN"
 "http://www.w3.org/TR/2001/REC-SVG-20010904/DTD/svg10.dtd">
<svg version="1.0" xmlns="http://www.w3.org/2000/svg"
 width="452.000000pt" height="452.000000pt" viewBox="0 0 452.000000 452.000000"
 preserveAspectRatio="xMidYMid meet">

<g transform="translate(0.000000,452.000000) scale(0.100000,-0.100000)"
fill="#000000" stroke="none">
<path d="M3522 4320 c-51 -9 -94 -19 -96 -21 -4 -5 294 -1632 300 -1638 8 -8
174 21 174 30 0 5 -56 375 -125 821 -69 447 -125 816 -125 820 0 11 -19 9
-128 -12z"/>
<path d="M2537 3853 l-87 -65 73 -106 c41 -59 244 -357 452 -662 207 -305 383
-561 389 -568 10 -10 27 -2 86 40 40 29 73 57 73 61 -1 8 -878 1344 -892 1358
-3 4 -45 -22 -94 -58z"/>
<path d="M1783 3018 c-41 -72 -50 -96 -40 -104 8 -8 1065 -649 1369 -830 6 -4
108 161 108 174 -1 8 -1353 846 -1372 850 -7 1 -35 -37 -65 -90z"/>
<path d="M1451 2203 c-5 -21 -16 -66 -24 -99 l-14 -62 799 -202 c440 -111 801
-200 803 -198 6 7 57 170 54 172 -5 5 -1587 426 -1599 426 -5 0 -14 -17 -19
-37z"/>
<path d="M810 1040 l0 -860 1355 0 1355 0 2 790 c1 435 3 820 3 858 l0 67 -90
0 -90 0 -3 -768 -2 -767 -1173 2 -1172 3 -3 768 -2 767 -90 0 -90 0 0 -860z"/>
<path d="M1367 1468 c-3 -18 -9 -58 -12 -88 l-7 -55 811 -74 c488 -45 815 -71
820 -65 5 5 12 44 15 86 7 75 6 78 -16 82 -23 5 -1559 146 -1589 146 -11 0
-19 -11 -22 -32z"/>
<path d="M1360 808 l0 -91 347 6 c190 4 555 7 810 7 l463 0 0 85 0 85 -810 0
-810 0 0 -92z"/>
</g>
</svg>
